<svg width="247" height="69" viewBox="0 0 247 69" fill="none" xmlns="http://www.w3.org/2000/svg">
<g clip-path="url(#clip0_140_2671)">
<path d="M202.531 45.4319H202.537C205.691 45.4319 208.248 42.8739 208.248 39.7185V39.713C208.248 36.5577 205.691 33.9997 202.537 33.9997H202.531C199.377 33.9997 196.82 36.5577 196.82 39.713V39.7185C196.82 42.8739 199.377 45.4319 202.531 45.4319Z" fill="#22B573"/>
<path d="M39.0544 18.7678C40.3681 16.1338 42.16 14.1103 44.4302 12.6915C46.6948 11.2728 49.2288 10.5635 52.0211 10.5635C54.4067 10.5635 56.5009 11.0474 58.3038 12.0207C60.1068 12.994 61.4919 14.2697 62.4648 15.8479V11.0474H72.8481V44.9425H62.4648V40.142C61.4535 41.7202 60.0463 42.9959 58.2434 43.9692C56.4405 44.9425 54.3462 45.4264 51.9606 45.4264C49.2068 45.4264 46.6948 44.706 44.4302 43.2708C42.1655 41.8356 40.3736 39.79 39.0544 37.1341C37.7407 34.4836 37.0811 31.4152 37.0811 27.929C37.0811 24.4427 37.7407 21.3908 39.0544 18.7568V18.7678ZM60.3046 21.8637C58.87 20.368 57.1166 19.6146 55.0498 19.6146C52.983 19.6146 51.2351 20.3515 49.7949 21.8307C48.3603 23.3099 47.6402 25.3445 47.6402 27.9345C47.6402 30.5244 48.3603 32.581 49.7949 34.0987C51.2296 35.6164 52.983 36.3752 55.0498 36.3752C57.1166 36.3752 58.8645 35.6274 60.3046 34.1262C61.7393 32.6305 62.4594 30.5849 62.4594 27.9894C62.4594 25.394 61.7393 23.3539 60.3046 21.8527V21.8637Z" fill="#F1F2ED"/>
<path d="M76.8221 18.7678C78.2567 16.1338 80.263 14.1103 82.8355 12.6915C85.4079 11.2728 88.3487 10.5635 91.6687 10.5635C95.9176 10.5635 99.474 11.6798 102.327 13.9013C105.18 16.1283 107.054 19.2682 107.944 23.3154H96.896C95.9671 20.7254 94.1642 19.4277 91.4928 19.4277C89.5909 19.4277 88.0738 20.17 86.9415 21.6437C85.8092 23.1229 85.243 25.2345 85.243 27.9894C85.243 30.7444 85.8092 32.856 86.9415 34.3352C88.0738 35.8144 89.5909 36.5512 91.4928 36.5512C94.1642 36.5512 95.9671 35.2535 96.896 32.6635H107.944C107.054 36.6337 105.169 39.7516 102.299 42.0171C99.4245 44.2826 95.8846 45.4209 91.6742 45.4209C88.3541 45.4209 85.4079 44.7116 82.841 43.2928C80.2685 41.8741 78.2677 39.8505 76.8276 37.2166C75.3929 34.5826 74.6729 31.5087 74.6729 27.9839C74.6729 24.4592 75.3929 21.3853 76.8276 18.7513L76.8221 18.7678Z" fill="#F1F2ED"/>
<path d="M127.776 24.844L143.398 44.9479H130.524L120.202 30.7333V44.9479H109.818V0H120.202V24.844H127.771H127.776Z" fill="#F1F2ED"/>
<path d="M175.46 30.4914H151.962C152.121 32.5975 152.803 34.2087 153.996 35.3195C155.188 36.4357 156.656 36.9911 158.398 36.9911C160.987 36.9911 162.79 35.8968 163.802 33.7138H174.85C174.284 35.9408 173.261 37.9479 171.783 39.7296C170.304 41.5112 168.452 42.9079 166.226 43.9197C164 44.9315 161.51 45.4374 158.756 45.4374C155.436 45.4374 152.478 44.728 149.889 43.3093C147.301 41.8906 145.278 39.867 143.816 37.2331C142.359 34.5991 141.628 31.5252 141.628 28.0004C141.628 24.4757 142.348 21.4018 143.783 18.7678C145.217 16.1338 147.235 14.1103 149.824 12.6915C152.412 11.2728 155.386 10.5635 158.75 10.5635C162.114 10.5635 164.945 11.2508 167.495 12.6311C170.046 14.0058 172.041 15.9689 173.476 18.5204C174.91 21.0718 175.631 24.0467 175.631 27.4506C175.631 28.4239 175.57 29.4356 175.449 30.4859L175.46 30.4914ZM165.016 24.7231C165.016 22.9415 164.412 21.5228 163.197 20.4725C161.982 19.4167 160.465 18.8943 158.646 18.8943C156.826 18.8943 155.436 19.4002 154.243 20.412C153.05 21.4238 152.308 22.8645 152.028 24.7231H165.022H165.016Z" fill="#F1F2ED"/>
<path d="M192.402 12.3011C194.221 11.2288 196.249 10.6899 198.476 10.6899V21.6877H195.623C193.034 21.6877 191.088 22.2431 189.796 23.3594C188.499 24.4756 187.856 26.4277 187.856 29.2212V44.9535H177.473V11.0529H187.856V16.7002C189.071 14.8361 190.588 13.3679 192.407 12.2956L192.402 12.3011Z" fill="#F1F2ED"/>
<path d="M132.009 22.001H132.015C135.169 22.001 137.726 19.443 137.726 16.2876V16.2821C137.726 13.1267 135.169 10.5688 132.015 10.5688H132.009C128.855 10.5688 126.298 13.1267 126.298 16.2821V16.2876C126.298 19.443 128.855 22.001 132.009 22.001Z" fill="#7D69FF"/>
<path d="M25.1035 0V17.162H10.1744V0H0V44.9479H10.1744V26.9005H25.1035V44.9479H35.2779V0H25.1035Z" fill="#F1F2ED"/>
<path d="M235.534 0V26.8785C235.534 29.2651 234.929 31.1182 233.747 32.3829C232.565 33.6367 230.823 34.2745 228.569 34.2745C226.316 34.2745 224.601 33.6422 223.457 32.3939C222.303 31.1292 221.72 29.2761 221.72 26.884V0H210.26V26.8126C210.26 30.7003 211.062 34.0436 212.64 36.76C214.223 39.493 216.411 41.5661 219.142 42.9243C221.852 44.2715 224.963 44.9534 228.388 44.9534C231.812 44.9534 234.962 44.2605 237.754 42.8968C240.563 41.5166 242.833 39.449 244.499 36.7435C246.164 34.0381 247.005 30.7003 247.005 26.8126V0H235.539H235.534Z" fill="#F1F2ED"/>
<path d="M5.19439 66.8389H3.6718L6.35969 59.5969H0V58.3376H7.89327V59.5364L5.18889 66.8444L5.19439 66.8389ZM1.60504 69H0.164901V62.3298H1.60504V69Z" fill="#F1F2ED"/>
<path d="M10.8452 65.915C10.1911 65.1561 9.86133 64.1168 9.86133 62.7916V58.332H11.3015V62.6761C11.3015 63.6384 11.5103 64.3973 11.9226 64.9527C12.3348 65.5081 12.9065 65.7885 13.6266 65.7885C14.3906 65.7885 15.0062 65.4861 15.479 64.8867C15.9462 64.2873 16.1825 63.49 16.1825 62.4947C16.1825 61.6753 16.1661 61.0925 16.1331 60.7515C16.1001 60.4051 15.9957 60.1302 15.8198 59.9267C15.6878 59.7727 15.5284 59.6627 15.336 59.5913C15.1437 59.5198 14.9073 59.4868 14.6215 59.4868C14.1762 59.4868 13.7035 59.5803 13.2143 59.7672V58.5245C13.8904 58.3265 14.506 58.2275 15.0667 58.2275C15.8088 58.2275 16.3804 58.4035 16.7872 58.7499C17.106 59.0249 17.3204 59.4153 17.4413 59.9322C17.5622 60.4436 17.6227 61.2629 17.6227 62.3902C17.6227 63.3195 17.4523 64.1333 17.117 64.8427C16.7762 65.5466 16.298 66.0909 15.6823 66.4814C15.0667 66.8718 14.3521 67.0642 13.5441 67.0642C12.3953 67.0642 11.4993 66.6848 10.8397 65.926L10.8452 65.915Z" fill="#F1F2ED"/>
<path d="M21.9481 63.776H20.4915V59.5969H19.4746V58.3376H21.9481V63.776Z" fill="#F1F2ED"/>
<path d="M26.6483 63.776H25.1917V59.5969H24.1748V58.3376H26.6483V63.776Z" fill="#F1F2ED"/>
<path d="M35.0524 61.5434C35.0524 60.2456 34.4917 59.5913 33.3649 59.5913H29.3193V58.332H33.6452C34.5742 58.332 35.2778 58.607 35.767 59.1514C36.2507 59.6958 36.498 60.4821 36.498 61.5104V66.8388H35.0579V61.5434H35.0524ZM30.7595 66.8388H29.3193V62.3352H30.7595V66.8388Z" fill="#F1F2ED"/>
<path d="M38.6252 66.8389V65.5797H43.16V61.549C43.16 60.2513 42.5994 59.5969 41.4725 59.5969H38.7022V58.3376H41.7474C42.6873 58.3376 43.3964 58.6071 43.8746 59.1515C44.3528 59.6904 44.5947 60.4822 44.5947 61.5215V65.5852H45.9359V66.8444H38.6143L38.6252 66.8389Z" fill="#F1F2ED"/>
<path d="M57.4128 61.5434C57.4128 60.2456 56.8521 59.5913 55.7253 59.5913H51.6797V58.332H56.0056C56.9345 58.332 57.6381 58.607 58.1273 59.1514C58.611 59.6958 58.8584 60.4821 58.8584 61.5104V66.8388H57.4182V61.5434H57.4128ZM53.1198 66.8388H51.6797V62.3352H53.1198V66.8388Z" fill="#F1F2ED"/>
<path d="M65.4874 61.5434C65.4874 60.2456 64.9268 59.5913 63.7999 59.5913H60.7383V58.332H64.0803C64.9982 58.332 65.6963 58.607 66.1855 59.1514C66.6692 59.6958 66.9166 60.4821 66.9166 61.5104V66.8388H65.4929V61.5434H65.4874Z" fill="#F1F2ED"/>
<path d="M71.5614 63.776H70.1048V59.5969H69.0879V58.3376H71.5614V63.776Z" fill="#F1F2ED"/>
<path d="M76.2665 63.776H74.8099V59.5969H73.793V58.3376H76.2665V63.776Z" fill="#F1F2ED"/>
<path d="M83.1105 61.5434C83.1105 60.2456 82.5498 59.5913 81.423 59.5913H78.3613V58.332H81.7033C82.6213 58.332 83.3194 58.607 83.8086 59.1514C84.2923 59.6958 84.5396 60.4821 84.5396 61.5104V66.8388H83.116V61.5434H83.1105Z" fill="#F1F2ED"/>
<path d="M92.185 66.8389H90.6624L93.3503 59.5969H86.9961V58.3376H94.8894V59.5364L92.185 66.8444V66.8389ZM88.5956 69H87.1555V62.3298H88.5956V69Z" fill="#F1F2ED"/>
<path d="M100.002 66.8389H98.4795L101.475 59.5969H96.6436V55.3022H98.0672V58.3321H103.031V59.4979L100.002 66.8389Z" fill="#F1F2ED"/>
<path d="M112.237 61.7413C112.237 60.977 112.1 60.4271 111.819 60.0917C111.539 59.7562 111.083 59.5913 110.451 59.5913H107.779V58.332H110.808C111.748 58.332 112.457 58.5905 112.946 59.1019C113.43 59.6133 113.677 60.3666 113.677 61.3619V68.9999H112.237V61.7413Z" fill="#F1F2ED"/>
<path d="M115.722 66.7893V65.5906C116.041 65.6565 116.288 65.6895 116.475 65.6895C116.899 65.6895 117.212 65.5796 117.399 65.3596C117.591 65.1396 117.685 64.7932 117.685 64.3093V59.5913H115.717V58.332H121.879C122.808 58.332 123.511 58.6015 124 59.1459C124.484 59.6848 124.731 60.4711 124.731 61.4994V66.8388H123.291V61.5434C123.291 60.2456 122.736 59.5913 121.62 59.5913H119.114V64.4413C119.114 66.102 118.317 66.9323 116.723 66.9323C116.338 66.9323 116.008 66.8828 115.722 66.7838V66.7893Z" fill="#F1F2ED"/>
<path d="M129.42 66.8389H127.963V59.5969H126.946V58.3376H129.42V66.8444V66.8389Z" fill="#F1F2ED"/>
<path d="M131.63 66.8389C131.718 66.2065 131.806 65.6512 131.894 65.1838C132.103 64.2105 132.383 63.4956 132.746 63.0392C133.108 62.5828 133.653 62.2419 134.384 62.0219L131.663 58.3376H133.367L136.121 62.0714C136.599 61.9174 136.962 61.7085 137.204 61.439C137.445 61.1696 137.594 60.9166 137.66 60.6692C137.726 60.4217 137.792 60.0808 137.858 59.6464L138.039 58.3376H139.529C139.485 58.7391 139.419 59.168 139.331 59.6134C139.188 60.3117 139.012 60.8726 138.809 61.3015C138.605 61.7305 138.336 62.0659 138.006 62.3078C137.676 62.5553 137.253 62.7478 136.731 62.8907L139.644 66.8389H137.957L134.977 62.8082C134.389 63.0172 133.993 63.3141 133.79 63.6991C133.587 64.0895 133.46 64.4524 133.405 64.7878C133.35 65.1288 133.317 65.3377 133.306 65.4257C133.262 65.7007 133.191 66.1681 133.092 66.8334H131.635L131.63 66.8389Z" fill="#F1F2ED"/>
<path d="M145.404 66.8388V58.332H149.955C150.873 58.332 151.577 58.607 152.066 59.1514C152.555 59.6958 152.802 60.4821 152.802 61.5104V66.8388H145.398H145.404ZM146.844 65.5796H151.368V61.5489C151.368 60.2511 150.807 59.5968 149.68 59.5968H146.844V65.5796Z" fill="#F1F2ED"/>
<path d="M157.459 63.776H156.002V59.5969H154.985V58.3376H157.459V63.776Z" fill="#F1F2ED"/>
<path d="M165.16 66.8389H163.637L166.325 59.5969H159.971V58.3376H167.864V59.5364L165.16 66.8444V66.8389ZM161.57 69H160.13V62.3298H161.57V69Z" fill="#F1F2ED"/>
<path d="M172.135 63.776H170.678V59.5969H169.661V58.3376H172.135V63.776Z" fill="#F1F2ED"/>
<path d="M174.234 66.9379V65.6787H175.427C176.213 65.6787 176.609 65.2772 176.609 64.4634V59.5969H174.515V58.3376H178.038V64.4799C178.038 65.2662 177.829 65.8711 177.417 66.3C176.999 66.7234 176.406 66.9379 175.631 66.9379H174.24H174.234Z" fill="#F1F2ED"/>
<path d="M182.111 66.8388L181.897 66.1514C181.578 65.1891 181.336 64.3698 181.16 63.6879C180.985 63.0061 180.897 62.3682 180.897 61.7798C180.897 61.3124 180.957 60.889 181.083 60.5206C181.21 60.1467 181.386 59.8442 181.617 59.6023H179.995V58.343H184.497V59.6023H183.348C182.963 59.6023 182.661 59.7507 182.43 60.0532C182.199 60.3556 182.084 60.7625 182.084 61.2739C182.084 61.8733 182.221 62.6102 182.502 63.4845C182.782 64.3588 183.189 65.4806 183.722 66.8443H182.1L182.111 66.8388Z" fill="#F1F2ED"/>
<path d="M190.005 66.971V65.7118C190.203 65.7777 190.505 65.8107 190.923 65.8107C191.764 65.8107 192.396 65.5413 192.825 64.9969C193.254 64.4525 193.462 63.6552 193.462 62.5939C193.462 61.5326 193.259 60.7683 192.858 60.2019C192.451 59.6355 191.89 59.3495 191.17 59.3495C190.538 59.3495 190.011 59.5805 189.598 60.0369C189.181 60.4933 188.873 61.1972 188.664 62.132C188.499 62.9183 188.345 63.9741 188.208 65.2938L188.043 66.9655H186.636C186.669 66.2891 186.773 65.2993 186.954 64.0016C187.136 62.7039 187.29 61.802 187.422 61.2961L185.833 58.3323H187.405L188.224 59.7895C188.576 59.2451 189.005 58.8272 189.516 58.5467C190.027 58.2608 190.621 58.1233 191.286 58.1233C192.413 58.1233 193.287 58.5082 193.924 59.2726C194.556 60.0369 194.875 61.0872 194.875 62.4179C194.875 63.8696 194.529 65.0134 193.836 65.8437C193.144 66.6741 192.182 67.0865 190.961 67.0865C190.621 67.0865 190.307 67.048 190.011 66.971H190.005Z" fill="#F1F2ED"/>
</g>
<defs>
<clipPath id="clip0_140_2671">
<rect width="247" height="69" fill="white"/>
</clipPath>
</defs>
</svg>
